<svg xmlns="http://www.w3.org/2000/svg" xmlns:xlink="http://www.w3.org/1999/xlink" version="1.1" width="256" height="256" xml:space="preserve" style=""><rect id="backgroundrect" width="100%" height="100%" x="0" y="0" fill="none" stroke="none"/>

<defs>
</defs>

<g class="currentLayer" style=""><title>Layer 1</title><g style="stroke: none; stroke-width: 0; stroke-dasharray: none; stroke-linecap: butt; stroke-linejoin: miter; stroke-miterlimit: 10; fill-rule: nonzero; opacity: 1;" transform="translate(1.4065934419631958,1.4065934419631958) scale(2.809999942779541) " id="svg_1" class="selected" fill="#ffffff" fill-opacity="1">
	<path d="M 45 49.519 L 45 49.519 c -7.68 0 -13.964 -6.284 -13.964 -13.964 v -5.008 c 0 -7.68 6.284 -13.964 13.964 -13.964 h 0 c 7.68 0 13.964 6.284 13.964 13.964 v 5.008 C 58.964 43.236 52.68 49.519 45 49.519 z" style="stroke: none; stroke-width: 1; stroke-dasharray: none; stroke-linecap: butt; stroke-linejoin: miter; stroke-miterlimit: 10; fill-rule: nonzero; opacity: 1;" stroke-linecap="round" id="svg_2" fill="#ffffff" fill-opacity="1"/>
	<path d="M 52.863 51.438 c -2.362 1.223 -5.032 1.927 -7.863 1.927 s -5.501 -0.704 -7.863 -1.927 C 26.58 53.014 18.414 62.175 18.414 73.152 v 14.444 c 0 1.322 1.082 2.403 2.403 2.403 h 48.364 c 1.322 0 2.403 -1.082 2.403 -2.403 V 73.152 C 71.586 62.175 63.42 53.014 52.863 51.438 z" style="stroke: none; stroke-width: 1; stroke-dasharray: none; stroke-linecap: butt; stroke-linejoin: miter; stroke-miterlimit: 10; fill-rule: nonzero; opacity: 1;" stroke-linecap="round" id="svg_3" fill="#ffffff" fill-opacity="1"/>
	<path d="M 71.277 34.854 c -2.362 1.223 -5.032 1.927 -7.863 1.927 c -0.004 0 -0.007 0 -0.011 0 c -0.294 4.412 -2.134 8.401 -4.995 11.43 c 10.355 3.681 17.678 13.649 17.678 24.941 v 0.263 h 11.511 c 1.322 0 2.404 -1.082 2.404 -2.404 V 56.568 C 90 45.59 81.834 36.429 71.277 34.854 z" style="stroke: none; stroke-width: 1; stroke-dasharray: none; stroke-linecap: butt; stroke-linejoin: miter; stroke-miterlimit: 10; fill-rule: nonzero; opacity: 1;" stroke-linecap="round" id="svg_4" fill="#ffffff" fill-opacity="1"/>
	<path d="M 63.414 0 c -7.242 0 -13.237 5.589 -13.898 12.667 c 8 2.023 13.947 9.261 13.947 17.881 v 2.385 c 7.657 -0.027 13.914 -6.298 13.914 -13.961 v -5.008 C 77.378 6.284 71.094 0 63.414 0 z" style="stroke: none; stroke-width: 1; stroke-dasharray: none; stroke-linecap: butt; stroke-linejoin: miter; stroke-miterlimit: 10; fill-rule: nonzero; opacity: 1;" stroke-linecap="round" id="svg_5" fill="#ffffff" fill-opacity="1"/>
	<path d="M 13.915 73.152 c 0 -11.292 7.322 -21.261 17.677 -24.941 c -2.861 -3.029 -4.702 -7.019 -4.995 -11.43 c -0.004 0 -0.007 0 -0.011 0 c -2.831 0 -5.5 -0.704 -7.863 -1.927 C 8.166 36.429 0 45.59 0 56.568 v 14.444 c 0 1.322 1.082 2.404 2.404 2.404 h 11.511 V 73.152 z" style="stroke: none; stroke-width: 1; stroke-dasharray: none; stroke-linecap: butt; stroke-linejoin: miter; stroke-miterlimit: 10; fill-rule: nonzero; opacity: 1;" stroke-linecap="round" id="svg_6" fill="#ffffff" fill-opacity="1"/>
	<path d="M 26.536 32.932 v -2.385 c 0 -8.62 5.946 -15.858 13.947 -17.881 C 39.823 5.589 33.828 0 26.586 0 c -7.68 0 -13.964 6.284 -13.964 13.964 v 5.008 C 12.622 26.635 18.879 32.905 26.536 32.932 z" style="stroke: none; stroke-width: 1; stroke-dasharray: none; stroke-linecap: butt; stroke-linejoin: miter; stroke-miterlimit: 10; fill-rule: nonzero; opacity: 1;" stroke-linecap="round" id="svg_7" fill="#ffffff" fill-opacity="1"/>
</g><path fill="" fill-opacity="1" stroke="none" stroke-opacity="1" stroke-width="1" stroke-dasharray="none" stroke-linejoin="miter" stroke-linecap="butt" stroke-dashoffset="" fill-rule="nonzero" opacity="1" marker-start="" marker-mid="" marker-end="" d="M62,37.5 C62,34.46132596685083 64.01381215469613,32 66.5,32 C68.98618784530387,32 71,34.46132596685083 71,37.5 C71,40.53867403314917 68.98618784530387,43 66.5,43 C64.01381215469613,43 62,40.53867403314917 62,37.5 Z" id="svg_8"/><path fill="" fill-opacity="1" stroke="none" stroke-opacity="1" stroke-width="1" stroke-dasharray="none" stroke-linejoin="miter" stroke-linecap="butt" stroke-dashoffset="" fill-rule="nonzero" opacity="1" marker-start="" marker-mid="" marker-end="" d="M67,45 C67,43.89502762430939 69.68508287292818,43 73,43 C76.31491712707182,43 79,43.89502762430939 79,45 C79,46.10497237569061 76.31491712707182,47 73,47 C69.68508287292818,47 67,46.10497237569061 67,45 Z" id="svg_11"/></g></svg>